<svg xmlns="http://www.w3.org/2000/svg" version="1.1" xmlns:xlink="http://www.w3.org/1999/xlink" xmlns:svgjs="http://svgjs.dev/svgjs" width="1500" height="265" viewBox="0 0 1500 265"><g transform="matrix(1,0,0,1,-0.9090909090909918,-0.5826559581319941)"><svg viewBox="0 0 396 70" data-background-color="#c6e4ec" preserveAspectRatio="xMidYMid meet" height="265" width="1500" xmlns="http://www.w3.org/2000/svg" xmlns:xlink="http://www.w3.org/1999/xlink"><g id="tight-bounds" transform="matrix(1,0,0,1,0.2400000000000091,0.15390912101599952)"><svg viewBox="0 0 395.52 69.69218175796797" height="69.69218175796797" width="395.52"><g><svg viewBox="0 0 538.4559464524963 94.87805847700758" height="69.69218175796797" width="395.52"><g><rect width="6.191173102469532" height="68.99598319058799" x="411.7272594305485" y="12.941037643209796" fill="#3d4335" opacity="1" stroke-width="0" stroke="transparent" fill-opacity="1" class="rect-qz-0" data-fill-palette-color="primary" rx="1%" id="qz-0" data-palette-color="#3d4335"></rect></g><g transform="matrix(1,0,0,1,0,13.112669442191354)"><svg viewBox="0 0 395.52 68.65271959262488" height="68.65271959262488" width="395.52"><g id="textblocktransform"><svg viewBox="0 0 395.52 68.65271959262488" height="68.65271959262488" width="395.52" id="textblock"><g><svg viewBox="0 0 395.52 68.65271959262488" height="68.65271959262488" width="395.52"><g transform="matrix(1,0,0,1,0,0)"><svg width="395.52" viewBox="0.6 -36.95 217.02582275390623 37.45" height="68.65271959262488" data-palette-color="#3d4335"><g transform="matrix(1,0,0,1,0,0)"><g><svg width="10.6038818359375" viewBox="1.19 -36.36 47.050000000000004 36.36" height="8.195" data-palette-color="#3d4335" id="scriptelement" x="207.02194091796872" y="-8.195"><path d="M18.55-28.05L9.43 0 1.19 0 13.74-36.36 23.65-36.36 36.19 0 27.95 0 18.84-28.05 18.55-28.05ZM8.91-8.29L8.91-14.29 28.37-14.29 28.37-8.29 8.91-8.29ZM40.55-36.36L48.24-36.36 48.24 0 40.55 0 40.55-36.36Z" opacity="1" transform="matrix(1,0,0,1,0,0)" fill="#3d4335" class="undefined-123" data-fill-palette-color="primary" id="yy-123"></path></svg></g></g><g class="wordmark-text-0" data-fill-palette-color="primary" id="text-0"><path d="M7.3 0L4.05 0 4.05-21.55 0.6-21.55Q0.6-23.2 0.65-23.9 0.7-24.6 0.93-24.8 1.15-25 1.65-25L1.65-25 4.05-25 4.05-28.05Q4.05-30.95 4.83-32.7 5.6-34.45 6.85-35.38 8.1-36.3 9.58-36.63 11.05-36.95 12.45-36.95L12.45-36.95Q14.75-36.95 15.93-36.4 17.1-35.85 17.1-34.9L17.1-34.9Q17.1-34.4 16.98-33.8 16.85-33.2 16.65-32.65L16.65-32.65Q15.75-33.05 14.85-33.15 13.95-33.25 13.1-33.25L13.1-33.25Q12.1-33.25 11.23-33.1 10.35-32.95 9.63-32.43 8.9-31.9 8.5-30.95 8.1-30 8.1-28.35L8.1-28.35 8.1-25 12.6-25Q12.6-23.4 12.55-22.68 12.5-21.95 12.33-21.75 12.15-21.55 11.75-21.55L11.75-21.55 8.1-21.55 8.1-0.8Q8.1-0.75 7.98-0.38 7.85 0 7.3 0L7.3 0ZM21.35 0.5L21.35 0.5Q19.95 0.5 18.67 0.28 17.4 0.05 16.4-0.73 15.4-1.5 14.8-3 14.2-4.5 14.2-7.1L14.2-7.1Q14.2-9.7 14.75-11.33 15.3-12.95 16.25-13.83 17.2-14.7 18.4-15 19.6-15.3 20.85-15.3L20.85-15.3Q21.65-15.3 22.72-15.15 23.8-15 24.55-14.65L24.55-14.65Q24.55-14.65 24.55-15.35 24.55-16.05 24.55-16.98 24.55-17.9 24.55-18.6L24.55-18.6Q24.55-19.8 24.17-20.43 23.8-21.05 23.12-21.33 22.45-21.6 21.45-21.6L21.45-21.6Q19.5-21.6 17.7-21.25 15.9-20.9 14.8-20.45L14.8-20.45Q14.45-21.05 14.35-21.68 14.25-22.3 14.25-22.8L14.25-22.8Q14.25-23.15 14.37-23.55 14.5-23.95 14.8-24.15L14.8-24.15Q15.45-24.55 17.5-25.03 19.55-25.5 22.4-25.5L22.4-25.5Q25.65-25.5 27.12-24.15 28.6-22.8 28.6-19.4L28.6-19.4 28.6-16.75Q28.6-13.9 28.57-11.03 28.55-8.15 28.5-5.63 28.45-3.1 28.3-1.2L28.3-1.2Q27.3-0.6 25.55-0.05 23.8 0.5 21.35 0.5ZM21.75-2.9L21.75-2.9Q22.55-2.9 23.3-3.15 24.05-3.4 24.35-3.75L24.35-3.75Q24.45-4.55 24.47-5.95 24.5-7.35 24.52-8.9 24.55-10.45 24.55-11.8L24.55-11.8Q24.05-12.05 23.37-12.15 22.7-12.25 22.2-12.25L22.2-12.25Q21.4-12.25 20.72-12.08 20.05-11.9 19.55-11.38 19.05-10.85 18.75-9.85 18.45-8.85 18.45-7.2L18.45-7.2Q18.45-5.85 18.67-5 18.9-4.15 19.35-3.68 19.8-3.2 20.4-3.05 21-2.9 21.75-2.9ZM39.44 0.5L39.44 0.5Q37.59 0.5 36.22 0.03 34.84-0.45 33.89-1.78 32.94-3.1 32.47-5.55 31.99-8 31.99-11.95L31.99-11.95Q31.99-16.45 32.79-19.15 33.59-21.85 34.92-23.23 36.24-24.6 37.82-25.05 39.39-25.5 40.94-25.5L40.94-25.5Q42.69-25.5 43.89-24.88 45.09-24.25 45.09-23.25L45.09-23.25Q45.09-22.85 45.02-22.25 44.94-21.65 44.69-21L44.69-21Q44.09-21.35 43.14-21.63 42.19-21.9 41.14-21.9L41.14-21.9Q40.3-21.9 39.42-21.58 38.54-21.25 37.79-20.25 37.04-19.25 36.62-17.25 36.19-15.25 36.19-11.95L36.19-11.95Q36.19-9.3 36.47-7.58 36.74-5.85 37.29-4.88 37.84-3.9 38.69-3.5 39.54-3.1 40.64-3.1L40.64-3.1Q41.84-3.1 42.92-3.48 43.99-3.85 44.64-4.25L44.64-4.25Q44.84-3.6 44.92-3.08 44.99-2.55 44.99-2.05L44.99-2.05Q44.99-1 43.44-0.25 41.89 0.5 39.44 0.5ZM55.49 0.5L55.49 0.5Q53.79 0.5 52.32 0.03 50.84-0.45 49.77-1.7 48.69-2.95 48.12-5.25 47.54-7.55 47.54-11.2L47.54-11.2Q47.54-15.9 48.29-18.75 49.04-21.6 50.29-23.05 51.54-24.5 53.14-25 54.74-25.5 56.39-25.5L56.39-25.5Q59.54-25.5 61.14-23.5 62.74-21.5 62.74-17.45L62.74-17.45Q62.74-15.8 62.62-14.05 62.49-12.3 62.14-10.95L62.14-10.95Q60.44-10.6 58.34-10.45 56.24-10.3 54.34-10.23 52.44-10.15 51.22-10.15 49.99-10.15 49.99-10.15L49.99-10.15 50.04-13.45Q50.04-13.45 50.99-13.43 51.94-13.4 53.32-13.43 54.69-13.45 56.12-13.58 57.54-13.7 58.54-14L58.54-14Q58.69-14.7 58.74-15.5 58.79-16.3 58.79-17L58.79-17Q58.74-19.7 58.17-20.83 57.59-21.95 55.94-21.95L55.94-21.95Q55.09-21.95 54.32-21.48 53.54-21 52.94-19.83 52.34-18.65 52.02-16.6 51.69-14.55 51.69-11.35L51.69-11.35Q51.69-9 51.97-7.45 52.24-5.9 52.82-5.05 53.39-4.2 54.27-3.83 55.14-3.45 56.39-3.45L56.39-3.45Q57.89-3.45 59.37-3.85 60.84-4.25 62.04-5L62.04-5Q62.29-4.4 62.37-3.63 62.44-2.85 62.44-2.25L62.44-2.25Q62.44-1.5 61.49-0.85 60.54-0.2 58.97 0.15 57.39 0.5 55.49 0.5Z" fill="#3d4335" data-fill-palette-color="primary"></path><path d="M80.29 0.5L80.29 0.5Q78.64 0.5 77.19 0.13 75.74-0.25 74.59-1.48 73.44-2.7 72.81-5.13 72.19-7.55 72.19-11.6L72.19-11.6Q72.19-16.55 73.21-19.63 74.24-22.7 75.96-24.1 77.69-25.5 79.84-25.5L79.84-25.5Q80.99-25.5 81.89-25.25 82.79-25 83.39-24.5L83.39-24.5 83.39-34.9Q83.39-35.85 83.71-36.23 84.04-36.6 84.94-36.68 85.84-36.75 87.44-36.75L87.44-36.75 87.44-1Q86.24-0.4 84.41 0.05 82.59 0.5 80.29 0.5ZM80.44-3.15L80.44-3.15Q81.29-3.15 82.04-3.33 82.79-3.5 83.39-3.9L83.39-3.9 83.39-21.3Q82.94-21.7 82.41-21.83 81.89-21.95 81.09-21.95L81.09-21.95Q80.29-21.95 79.49-21.55 78.69-21.15 78.04-20.08 77.39-19 77.04-17.07 76.69-15.15 76.69-12.05L76.69-12.05Q76.69-9.2 76.94-7.45 77.19-5.7 77.69-4.78 78.19-3.85 78.86-3.5 79.54-3.15 80.44-3.15ZM99.14 0.5L99.14 0.5Q97.44 0.5 95.96 0.03 94.49-0.45 93.41-1.7 92.33-2.95 91.76-5.25 91.19-7.55 91.19-11.2L91.19-11.2Q91.19-15.9 91.94-18.75 92.69-21.6 93.94-23.05 95.19-24.5 96.79-25 98.39-25.5 100.04-25.5L100.04-25.5Q103.19-25.5 104.79-23.5 106.38-21.5 106.38-17.45L106.38-17.45Q106.38-15.8 106.26-14.05 106.13-12.3 105.79-10.95L105.79-10.95Q104.08-10.6 101.99-10.45 99.89-10.3 97.99-10.23 96.08-10.15 94.86-10.15 93.63-10.15 93.63-10.15L93.63-10.15 93.69-13.45Q93.69-13.45 94.63-13.43 95.58-13.4 96.96-13.43 98.33-13.45 99.76-13.58 101.19-13.7 102.19-14L102.19-14Q102.33-14.7 102.39-15.5 102.44-16.3 102.44-17L102.44-17Q102.39-19.7 101.81-20.83 101.24-21.95 99.58-21.95L99.58-21.95Q98.74-21.95 97.96-21.48 97.19-21 96.58-19.83 95.99-18.65 95.66-16.6 95.33-14.55 95.33-11.35L95.33-11.35Q95.33-9 95.61-7.45 95.89-5.9 96.46-5.05 97.04-4.2 97.91-3.83 98.79-3.45 100.04-3.45L100.04-3.45Q101.54-3.45 103.01-3.85 104.49-4.25 105.69-5L105.69-5Q105.94-4.4 106.01-3.63 106.08-2.85 106.08-2.25L106.08-2.25Q106.08-1.5 105.14-0.85 104.19-0.2 102.61 0.15 101.04 0.5 99.14 0.5ZM116.78 0.5L116.78 0.5Q114.68 0.5 113.66-0.43 112.63-1.35 112.33-3.03 112.03-4.7 112.03-6.95L112.03-6.95 112.03-21.5 108.63-21.5Q108.63-23.1 108.66-23.83 108.68-24.55 108.88-24.78 109.08-25 109.48-25L109.48-25 112.03-25 112.03-32.6Q112.03-33.35 112.36-33.63 112.68-33.9 113.56-33.95 114.43-34 116.08-34L116.08-34 116.08-25 121.18-25Q121.18-23.45 121.16-22.7 121.13-21.95 120.96-21.73 120.78-21.5 120.38-21.5L120.38-21.5 116.08-21.5 116.08-6.95Q116.08-5.9 116.16-4.98 116.23-4.05 116.61-3.53 116.98-3 117.88-3L117.88-3Q118.73-3 119.38-3.18 120.03-3.35 120.78-3.75L120.78-3.75Q120.88-3.35 120.98-2.85 121.08-2.35 121.08-1.7L121.08-1.7Q121.08-0.8 120.41-0.33 119.73 0.15 118.76 0.33 117.78 0.5 116.78 0.5ZM131.68 0.5L131.68 0.5Q129.98 0.5 128.51 0.03 127.03-0.45 125.96-1.7 124.88-2.95 124.31-5.25 123.73-7.55 123.73-11.2L123.73-11.2Q123.73-15.9 124.48-18.75 125.23-21.6 126.48-23.05 127.73-24.5 129.33-25 130.93-25.5 132.58-25.5L132.58-25.5Q135.73-25.5 137.33-23.5 138.93-21.5 138.93-17.45L138.93-17.45Q138.93-15.8 138.81-14.05 138.68-12.3 138.33-10.95L138.33-10.95Q136.63-10.6 134.53-10.45 132.43-10.3 130.53-10.23 128.63-10.15 127.41-10.15 126.18-10.15 126.18-10.15L126.18-10.15 126.23-13.45Q126.23-13.45 127.18-13.43 128.13-13.4 129.51-13.43 130.88-13.45 132.31-13.58 133.73-13.7 134.73-14L134.73-14Q134.88-14.7 134.93-15.5 134.98-16.3 134.98-17L134.98-17Q134.93-19.7 134.36-20.83 133.78-21.95 132.13-21.95L132.13-21.95Q131.28-21.95 130.51-21.48 129.73-21 129.13-19.83 128.53-18.65 128.21-16.6 127.88-14.55 127.88-11.35L127.88-11.35Q127.88-9 128.16-7.45 128.43-5.9 129.01-5.05 129.58-4.2 130.46-3.83 131.33-3.45 132.58-3.45L132.58-3.45Q134.08-3.45 135.56-3.85 137.03-4.25 138.23-5L138.23-5Q138.48-4.4 138.56-3.63 138.63-2.85 138.63-2.25L138.63-2.25Q138.63-1.5 137.68-0.85 136.73-0.2 135.16 0.15 133.58 0.5 131.68 0.5ZM149.23 0.5L149.23 0.5Q147.38 0.5 146 0.03 144.63-0.45 143.68-1.78 142.73-3.1 142.25-5.55 141.78-8 141.78-11.95L141.78-11.95Q141.78-16.45 142.58-19.15 143.38-21.85 144.7-23.23 146.03-24.6 147.6-25.05 149.18-25.5 150.73-25.5L150.73-25.5Q152.48-25.5 153.68-24.88 154.88-24.25 154.88-23.25L154.88-23.25Q154.88-22.85 154.8-22.25 154.73-21.65 154.48-21L154.48-21Q153.88-21.35 152.93-21.63 151.98-21.9 150.93-21.9L150.93-21.9Q150.08-21.9 149.2-21.58 148.33-21.25 147.58-20.25 146.83-19.25 146.4-17.25 145.98-15.25 145.98-11.95L145.98-11.95Q145.98-9.3 146.25-7.58 146.53-5.85 147.08-4.88 147.63-3.9 148.48-3.5 149.33-3.1 150.43-3.1L150.43-3.1Q151.63-3.1 152.7-3.48 153.78-3.85 154.43-4.25L154.43-4.25Q154.63-3.6 154.7-3.08 154.78-2.55 154.78-2.05L154.78-2.05Q154.78-1 153.23-0.25 151.68 0.5 149.23 0.5ZM164.93 0.5L164.93 0.5Q162.83 0.5 161.8-0.43 160.78-1.35 160.48-3.03 160.18-4.7 160.18-6.95L160.18-6.95 160.18-21.5 156.78-21.5Q156.78-23.1 156.8-23.83 156.83-24.55 157.03-24.78 157.23-25 157.63-25L157.63-25 160.18-25 160.18-32.6Q160.18-33.35 160.5-33.63 160.83-33.9 161.7-33.95 162.58-34 164.23-34L164.23-34 164.23-25 169.33-25Q169.33-23.45 169.3-22.7 169.28-21.95 169.1-21.73 168.93-21.5 168.53-21.5L168.53-21.5 164.23-21.5 164.23-6.95Q164.23-5.9 164.3-4.98 164.38-4.05 164.75-3.53 165.13-3 166.03-3L166.03-3Q166.88-3 167.53-3.18 168.18-3.35 168.93-3.75L168.93-3.75Q169.03-3.35 169.13-2.85 169.23-2.35 169.23-1.7L169.23-1.7Q169.23-0.8 168.55-0.33 167.88 0.15 166.9 0.33 165.93 0.5 164.93 0.5ZM179.57 0.5L179.57 0.5Q177.67 0.5 176.2 0.03 174.72-0.45 173.72-1.8 172.72-3.15 172.22-5.73 171.72-8.3 171.72-12.5L171.72-12.5Q171.72-19.35 173.92-22.43 176.12-25.5 180.02-25.5L180.02-25.5Q182.67-25.5 184.4-24.4 186.12-23.3 186.97-20.5 187.82-17.7 187.82-12.65L187.82-12.65Q187.82-5.65 185.72-2.58 183.62 0.5 179.57 0.5ZM179.67-2.95L179.67-2.95Q180.77-2.95 181.6-3.73 182.42-4.5 182.92-6.6 183.42-8.7 183.42-12.6L183.42-12.6Q183.42-16.6 183.02-18.63 182.62-20.65 181.87-21.35 181.12-22.05 179.87-22.05L179.87-22.05Q178.77-22.05 177.92-21.28 177.07-20.5 176.6-18.4 176.12-16.3 176.12-12.4L176.12-12.4Q176.12-9.35 176.37-7.45 176.62-5.55 177.05-4.58 177.47-3.6 178.17-3.28 178.87-2.95 179.67-2.95ZM191.42 0L191.42 0 191.42-23.25Q192.87-24.3 194.62-24.9 196.37-25.5 198.22-25.5L198.22-25.5Q200.17-25.5 200.95-24.98 201.72-24.45 201.72-23.4L201.72-23.4Q201.72-23 201.62-22.33 201.52-21.65 201.27-21L201.27-21Q200.72-21.3 200.12-21.45 199.52-21.6 198.87-21.6L198.87-21.6Q198.02-21.6 197.15-21.33 196.27-21.05 195.57-20.5L195.57-20.5 195.52-0.8Q195.52-0.4 195.35-0.25 195.17-0.1 194.32-0.05 193.47 0 191.42 0Z" fill="#3d4335" data-fill-palette-color="primary"></path></g></svg></g></svg></g></svg></g></svg></g><g transform="matrix(1,0,0,1,434.1256919635665,0)"><svg viewBox="0 0 104.3302544889298 94.87805847700758" height="94.87805847700758" width="104.3302544889298"><g><svg xmlns="http://www.w3.org/2000/svg" xmlns:xlink="http://www.w3.org/1999/xlink" version="1.1" x="0" y="0" viewBox="12.877257620633753 35.096141028955515 487.02801324477036 442.9038589710445" style="enable-background:new 0 0 512 512;" xml:space="preserve" height="94.87805847700758" width="104.3302544889298" class="icon-icon-0" data-fill-palette-color="accent" id="icon-0"><g fill="#3d4335" data-fill-palette-color="accent"><g fill="#3d4335" data-fill-palette-color="accent"><g fill="#3d4335" data-fill-palette-color="accent"><path d="M359.5 477.8H189.4c-8.9 0-16.1-7.2-16.1-16.1V418c0-13.8-1-27.8-2.9-41.5-0.3-2.2 1.2-4.2 3.4-4.5 2.2-0.3 4.2 1.2 4.5 3.4 2 14.1 3 28.5 3 42.6v43.8c0 4.5 3.6 8.1 8.1 8.1h170.1c4.5 0 8.1-3.6 8.1-8.1v-42.6c0-2.2 1.8-4 4-4h47.5c16.8 0 30.5-13.7 30.5-30.5V324c0-2.2 1.7-4 3.9-4l27.8-0.5c3.8-0.1 7.2-2.1 9.1-5.3 1.9-3.3 2-7.2 0.3-10.5l-30.4-57.3c-7-13.4-10.7-28.3-10.7-43.3 0-43-16.8-83.4-47.4-113.7C371.7 59.1 331.1 42.6 288.1 43c-31.3 0.2-61.4 9.4-87.2 26.6-1.8 1.2-4.3 0.7-5.5-1.1-1.2-1.8-0.7-4.3 1.1-5.5 27-18 58.7-27.7 91.5-27.9 45.2-0.3 87.7 16.9 119.8 48.7 32.1 31.8 49.7 74.2 49.7 119.4 0 13.7 3.4 27.3 9.8 39.5l30.4 57.3c3.1 5.8 2.9 12.7-0.4 18.4-3.4 5.7-9.3 9.2-15.9 9.3l-23.9 0.4v56.6c0 21.2-17.3 38.5-38.5 38.5h-43.5v38.6C375.6 470.6 368.4 477.8 359.5 477.8z" fill="#3d4335" data-fill-palette-color="accent"></path></g><g fill="#3d4335" data-fill-palette-color="accent"><path d="M294.1 163c-0.8 0-1.6-0.2-2.3-0.8-1.8-1.3-2.2-3.8-0.9-5.6l13-18-2.1-98.6c0-2.2 1.7-4 3.9-4.1 0 0 0.1 0 0.1 0 2.2 0 4 1.7 4 3.9l2.2 100c0 0.9-0.2 1.7-0.8 2.4l-13.8 19.1C296.5 162.5 295.3 163 294.1 163z" fill="#3d4335" data-fill-palette-color="accent"></path></g><g fill="#3d4335" data-fill-palette-color="accent"><path d="M375.5 175.6c-1.3 0-2.5-0.6-3.3-1.7L360 156.1c-0.5-0.7-0.7-1.5-0.7-2.3l1.1-96.8c0-2.2 1.8-4 4-4 0 0 0 0 0 0 2.2 0 4 1.8 4 4l-1 95.5 11.4 16.8c1.2 1.8 0.8 4.3-1.1 5.6C377 175.4 376.2 175.6 375.5 175.6z" fill="#3d4335" data-fill-palette-color="accent"></path></g><g fill="#3d4335" data-fill-palette-color="accent"><path d="M305.7 478c-2.2 0-3.9-1.7-4-3.9l-2.2-83.3c-0.1-2.2 1.7-4 3.9-4.1 2.2-0.1 4 1.7 4.1 3.9l2.2 83.3c0.1 2.2-1.7 4-3.9 4.1C305.7 478 305.7 478 305.7 478z" fill="#3d4335" data-fill-palette-color="accent"></path></g><g fill="#3d4335" data-fill-palette-color="accent"><path d="M270.6 476.5c-2.2 0-4-1.7-4-3.9l-0.7-41.7L252.7 419c-1.6-1.5-1.8-4-0.3-5.6 1.5-1.6 4-1.8 5.6-0.3l14.5 13c0.8 0.7 1.3 1.8 1.3 2.9l0.7 43.4C274.6 474.7 272.9 476.5 270.6 476.5 270.6 476.5 270.6 476.5 270.6 476.5z" fill="#3d4335" data-fill-palette-color="accent"></path></g><g fill="#3d4335" data-fill-palette-color="accent"><path d="M147.3 347.2h-40.1c-2.2 0-4-1.8-4-4v-22c-17.1-4.4-32.6-13.3-45.1-26.1l-19.1 11.1c-0.9 0.5-2 0.7-3 0.4-1-0.3-1.9-0.9-2.4-1.9l-20-34.7c-1.1-1.9-0.4-4.3 1.5-5.5L34 253.4c-2.4-8.4-3.6-17.1-3.6-26 0-8.9 1.2-17.6 3.6-26.1l-19.1-11c-1.9-1.1-2.6-3.5-1.5-5.5l20-34.7c1.1-1.9 3.5-2.6 5.5-1.5l19.1 11c12.5-12.7 27.9-21.7 45.1-26.1v-22.1c0-2.2 1.8-4 4-4h40.1c2.2 0 4 1.8 4 4v22.1c17.1 4.4 32.6 13.3 45.1 26.1l19.1-11c1.9-1.1 4.4-0.4 5.5 1.5l20 34.7c1.1 1.9 0.4 4.4-1.5 5.5l-19.1 11c2.4 8.5 3.6 17.2 3.6 26.1 0 8.9-1.2 17.6-3.6 26l19.1 11.1c1.9 1.1 2.6 3.5 1.5 5.5l-20 34.7c-0.5 0.9-1.4 1.6-2.4 1.9-1 0.3-2.1 0.1-3-0.4l-19.1-11.1c-12.5 12.8-28 21.7-45.1 26.1v22C151.3 345.4 149.5 347.2 147.3 347.2zM111.2 339.2h32.1V318c0-1.9 1.3-3.5 3.1-3.9 17.8-3.9 33.8-13.2 46.3-26.8 1.3-1.4 3.3-1.7 4.9-0.8l18.4 10.7 16-27.8-18.4-10.7c-1.6-0.9-2.4-2.9-1.8-4.7 2.7-8.6 4.1-17.5 4.1-26.7 0-9.1-1.4-18.2-4.1-26.8-0.6-1.8 0.2-3.7 1.8-4.7l18.3-10.6-16-27.8-18.4 10.6c-1.6 0.9-3.7 0.6-4.9-0.8-12.4-13.6-28.4-22.8-46.3-26.7-1.8-0.4-3.1-2-3.1-3.9v-21.2h-32.1v21.2c0 1.9-1.3 3.5-3.1 3.9-17.8 3.9-33.8 13.2-46.3 26.7-1.3 1.4-3.3 1.7-4.9 0.8l-18.4-10.6-16 27.8 18.3 10.6c1.6 0.9 2.4 2.9 1.8 4.7-2.7 8.6-4.1 17.6-4.1 26.8 0 9.2 1.4 18.1 4.1 26.7 0.6 1.8-0.2 3.7-1.8 4.7l-18.4 10.7 16 27.8 18.4-10.7c1.6-0.9 3.7-0.6 5 0.8 12.5 13.6 28.5 22.9 46.3 26.8 1.8 0.4 3.1 2 3.1 3.9L111.2 339.2 111.2 339.2z" fill="#3d4335" data-fill-palette-color="accent"></path></g><g fill="#3d4335" data-fill-palette-color="accent"><path d="M127.2 290.6c-34.9 0-63.3-28.4-63.3-63.3 0-34.9 28.4-63.4 63.3-63.4 34.9 0 63.3 28.4 63.3 63.4C190.5 262.3 162.1 290.6 127.2 290.6zM127.2 172C96.8 172 72 196.9 72 227.4c0 30.5 24.8 55.3 55.3 55.3 30.5 0 55.3-24.8 55.3-55.3C182.5 196.9 157.7 172 127.2 172z" fill="#3d4335" data-fill-palette-color="accent"></path></g><g fill="#3d4335" data-fill-palette-color="accent"><path d="M127.2 264.2c-20.3 0-36.8-16.5-36.8-36.8 0-20.3 16.5-36.8 36.8-36.8 20.3 0 36.8 16.5 36.8 36.8C164 247.7 147.5 264.2 127.2 264.2zM127.2 198.6c-15.9 0-28.8 12.9-28.8 28.8 0 15.9 12.9 28.8 28.8 28.8 15.9 0 28.8-12.9 28.8-28.8C156 211.5 143.1 198.6 127.2 198.6z" fill="#3d4335" data-fill-palette-color="accent"></path></g><g fill="#3d4335" data-fill-palette-color="accent"><path d="M283.7 199.2c-13 0-23.6-10.6-23.6-23.6 0-13 10.6-23.6 23.6-23.6 13 0 23.5 10.6 23.5 23.6C307.2 188.6 296.7 199.2 283.7 199.2zM283.7 160.1c-8.6 0-15.6 7-15.6 15.6 0 8.6 7 15.6 15.6 15.6 8.5 0 15.5-7 15.5-15.6C299.2 167 292.3 160.1 283.7 160.1z" fill="#3d4335" data-fill-palette-color="accent"></path></g><g fill="#3d4335" data-fill-palette-color="accent"><path d="M386.3 211.5c-13 0-23.5-10.6-23.5-23.6 0-13 10.5-23.6 23.5-23.6 13 0 23.6 10.6 23.6 23.6C409.8 200.9 399.3 211.5 386.3 211.5zM386.3 172.3c-8.5 0-15.5 7-15.5 15.6 0 8.6 7 15.6 15.5 15.6 8.6 0 15.6-7 15.6-15.6C401.8 179.3 394.9 172.3 386.3 172.3z" fill="#3d4335" data-fill-palette-color="accent"></path></g><g fill="#3d4335" data-fill-palette-color="accent"><path d="M303.5 396.7c-13 0-23.6-10.5-23.6-23.5 0-13 10.6-23.6 23.6-23.6 13 0 23.5 10.6 23.5 23.6C327 386.1 316.5 396.7 303.5 396.7zM303.5 357.6c-8.6 0-15.6 7-15.6 15.6 0 8.6 7 15.5 15.6 15.5 8.5 0 15.5-7 15.5-15.5C319 364.6 312.1 357.6 303.5 357.6z" fill="#3d4335" data-fill-palette-color="accent"></path></g><g fill="#3d4335" data-fill-palette-color="accent"><path d="M242.7 425.6c-13 0-23.5-10.6-23.5-23.6 0-13 10.5-23.5 23.5-23.5 13 0 23.6 10.5 23.6 23.5C266.3 415 255.7 425.6 242.7 425.6zM242.7 386.5c-8.5 0-15.5 7-15.5 15.5 0 8.6 7 15.6 15.5 15.6 8.6 0 15.6-7 15.6-15.6C258.3 393.5 251.3 386.5 242.7 386.5z" fill="#3d4335" data-fill-palette-color="accent"></path></g></g></g></svg></g></svg></g></svg></g><defs></defs></svg><rect width="395.52" height="69.69218175796797" fill="none" stroke="none" visibility="hidden"></rect></g></svg></g></svg>